<svg width="20" height="20" viewBox="0 0 20 20" fill="none" xmlns="http://www.w3.org/2000/svg">
  <path d="M19.5 7H14.5L16.36 5.14C14.9 3.23 12.59 2 10 2C5.58 2 2 5.58 2 10C2 11.83 2.61 13.5 3.64 14.85C4.86 13.45 7.15 12.5 10 12.5C12.85 12.5 15.15 13.45 16.36 14.85C17.39 13.5 18 11.83 18 10H20C20 15.5 15.5 20 10 20C4.5 20 0 15.5 0 10C0 4.5 4.5 0 10 0C13.14 0 15.95 1.45 17.78 3.72L19.5 2V7ZM10 5C11.66 5 13 6.34 13 8C13 9.66 11.66 11 10 11C8.34 11 7 9.66 7 8C7 6.34 8.34 5 10 5Z" fill="currentColor"/>
</svg>
