<svg width="18" height="20" viewBox="0 0 18 20" fill="none" xmlns="http://www.w3.org/2000/svg">
<path d="M16 2H11.82C11.4 0.84 10.3 0 9 0C7.7 0 6.6 0.84 6.18 2H2C0.9 2 0 2.9 0 4V18C0 19.1 0.9 20 2 20H16C17.1 20 18 19.1 18 18V4C18 2.9 17.1 2 16 2ZM9 2C9.55 2 10 2.45 10 3C10 3.55 9.55 4 9 4C8.45 4 8 3.55 8 3C8 2.45 8.45 2 9 2ZM4 6H14V4H16V18H2V4H4V6ZM9 16V14H14V16H9ZM9 10V8H14V10H9ZM5 11V8H4V7H6V11H5ZM6.25 13C6.66 13 7 13.34 7 13.75C7 13.95 6.92 14.14 6.79 14.27L5.12 16H7V17H4V16.08L6 14H4V13H6.25Z" fill="currentColor"/>
</svg>
