<svg width="154" height="64" viewBox="0 0 154 64" fill="none" xmlns="http://www.w3.org/2000/svg">
<path d="M38.1384 11H18.9698V36.8674H44.8372V17.6988C44.8372 13.9872 41.85 11 38.1384 11ZM12.9953 11H9.69884C5.98721 11 3 13.9872 3 17.6988V20.9953H12.9953V11ZM3 26.9698H12.9953V36.9651H3V26.9698ZM34.9477 52.8372H38.2442C41.9558 52.8372 44.943 49.85 44.943 46.1384V42.9477H34.9477V52.8372ZM18.9698 42.9477H28.9651V52.943H18.9698V42.9477ZM3 42.9477V46.2442C3 49.9558 5.98721 52.943 9.69884 52.943H12.9953V42.9477H3Z" fill="#1D2028"/>
<path d="M110.667 20C109.187 20 108 21.2 108 22.6667V41.3333C108 42.0406 108.281 42.7189 108.781 43.219C109.281 43.719 109.959 44 110.667 44H129.333C130.041 44 130.719 43.719 131.219 43.219C131.719 42.7189 132 42.0406 132 41.3333V38.2933C132.787 37.8267 133.333 36.9867 133.333 36V28C133.333 27.0133 132.787 26.1733 132 25.7067V22.6667C132 21.9594 131.719 21.2811 131.219 20.781C130.719 20.281 130.041 20 129.333 20H110.667ZM110.667 22.6667H129.333V25.3333H121.333C120.626 25.3333 119.948 25.6143 119.448 26.1144C118.948 26.6145 118.667 27.2928 118.667 28V36C118.667 36.7072 118.948 37.3855 119.448 37.8856C119.948 38.3857 120.626 38.6667 121.333 38.6667H129.333V41.3333H110.667V22.6667ZM121.333 28H130.667V36H121.333V28ZM125.333 30C124.803 30 124.294 30.2107 123.919 30.5858C123.544 30.9609 123.333 31.4696 123.333 32C123.333 32.5304 123.544 33.0391 123.919 33.4142C124.294 33.7893 124.803 34 125.333 34C125.864 34 126.372 33.7893 126.748 33.4142C127.123 33.0391 127.333 32.5304 127.333 32C127.333 31.4696 127.123 30.9609 126.748 30.5858C126.372 30.2107 125.864 30 125.333 30Z" fill="#6DC7F7"/>
<path d="M82 31H78.82C78.4 29.84 77.3 29 76 29C74.7 29 73.6 29.84 73.18 31H70C69.67 31 68 30.9 68 29V28C68 26.17 69.54 26 70 26H82.18C82.6 27.16 83.7 28 85 28C85.7956 28 86.5587 27.6839 87.1213 27.1213C87.6839 26.5587 88 25.7956 88 25C88 24.2044 87.6839 23.4413 87.1213 22.8787C86.5587 22.3161 85.7956 22 85 22C83.7 22 82.6 22.84 82.18 24H70C68.39 24 66 25.06 66 28V29C66 31.94 68.39 33 70 33H73.18C73.6 34.16 74.7 35 76 35C77.3 35 78.4 34.16 78.82 33H82C82.33 33 84 33.1 84 35V36C84 37.83 82.46 38 82 38H69.82C69.4 36.84 68.3 36 67 36C66.2044 36 65.4413 36.3161 64.8787 36.8787C64.3161 37.4413 64 38.2044 64 39C64 39.7956 64.3161 40.5587 64.8787 41.1213C65.4413 41.6839 66.2044 42 67 42C68.3 42 69.4 41.16 69.82 40H82C83.61 40 86 38.93 86 36V35C86 32.07 83.61 31 82 31ZM85 24C85.2652 24 85.5196 24.1054 85.7071 24.2929C85.8946 24.4804 86 24.7348 86 25C86 25.2652 85.8946 25.5196 85.7071 25.7071C85.5196 25.8946 85.2652 26 85 26C84.7348 26 84.4804 25.8946 84.2929 25.7071C84.1054 25.5196 84 25.2652 84 25C84 24.7348 84.1054 24.4804 84.2929 24.2929C84.4804 24.1054 84.7348 24 85 24ZM67 40C66.7348 40 66.4804 39.8946 66.2929 39.7071C66.1054 39.5196 66 39.2652 66 39C66 38.7348 66.1054 38.4804 66.2929 38.2929C66.4804 38.1054 66.7348 38 67 38C67.2652 38 67.5196 38.1054 67.7071 38.2929C67.8946 38.4804 68 38.7348 68 39C68 39.2652 67.8946 39.5196 67.7071 39.7071C67.5196 39.8946 67.2652 40 67 40Z" fill="#8C9BA5"/>
</svg>
