<svg width="154" height="64" viewBox="0 0 154 64" fill="none" xmlns="http://www.w3.org/2000/svg">
<path d="M114.667 33.333C116.88 33.333 118.667 35.1197 118.667 37.333C118.667 39.5463 116.88 41.333 114.667 41.333C112.453 41.333 110.667 39.5463 110.667 37.333C110.667 35.1197 112.453 33.333 114.667 33.333ZM114.667 35.9997C113.933 35.9997 113.333 36.5997 113.333 37.333C113.333 38.0663 113.933 38.6663 114.667 38.6663C115.4 38.6663 116 38.0663 116 37.333C116 36.5997 115.4 35.9997 114.667 35.9997ZM117.027 21.773L118 22.773L123.053 17.7197C123.293 17.4797 123.627 17.333 124 17.333C124.373 17.333 124.707 17.4797 124.947 17.7197L134.373 27.1463V27.1597C134.56 27.3863 134.667 27.6797 134.667 27.9997C134.667 28.3997 134.493 28.7597 134.213 29.013L129.24 33.9997L130.227 34.973L121.267 43.933C119.573 45.6263 117.24 46.6663 114.667 46.6663C109.507 46.6663 105.333 42.493 105.333 37.333C105.333 34.7597 106.373 32.4263 108.067 30.733L117.027 21.773ZM119.387 42.053L126.453 34.973L117.027 25.5463L109.947 32.613C108.747 33.8263 108 35.493 108 37.333C108 41.013 110.987 43.9997 114.667 43.9997C116.507 43.9997 118.173 43.253 119.387 42.053ZM124.093 22.253L126 24.133L124.093 25.9997L122.213 24.133L124.093 22.253ZM127.867 25.9997L129.747 27.9063L127.867 29.7863L126 27.9063L127.867 25.9997ZM131.453 27.9997L124 20.5463L119.907 24.6663L127.333 32.1063L131.453 27.9997Z" fill="#6DC7F7"/>
<path d="M21.4706 32.1176H25C27.2353 32.1176 28.5294 30.8235 28.5294 29.0588C28.5294 27.0588 27.1177 26 24.8824 26H21.4706H17V22H25.2353C30.0588 22 33 24.8235 33 28.9412C33 33.6471 29.353 36 24.8824 36H21.4706V42H17V32L21.4706 32.1176Z" fill="#1348E4"/>
<rect x="3" y="11" width="42" height="42" rx="21" stroke="#6DC7F7" stroke-width="4"/>
<path d="M77 25V31H78.17L76 33.17L73.83 31H75V25H77ZM79 23H73V29H69L76 36L83 29H79V23ZM87 38H65V40H87V38Z" fill="#8C9BA5"/>
</svg>
