<svg width="154" height="64" viewBox="0 0 154 64" fill="none" xmlns="http://www.w3.org/2000/svg">
<path d="M114.667 33.334C116.88 33.334 118.667 35.1206 118.667 37.334C118.667 39.5473 116.88 41.334 114.667 41.334C112.453 41.334 110.667 39.5473 110.667 37.334C110.667 35.1206 112.453 33.334 114.667 33.334ZM114.667 36.0007C113.933 36.0007 113.333 36.6007 113.333 37.334C113.333 38.0673 113.933 38.6673 114.667 38.6673C115.4 38.6673 116 38.0673 116 37.334C116 36.6007 115.4 36.0007 114.667 36.0007ZM117.027 21.774L118 22.774L123.053 17.7207C123.293 17.4807 123.627 17.334 124 17.334C124.373 17.334 124.707 17.4807 124.947 17.7207L134.373 27.1473V27.1607C134.56 27.3873 134.667 27.6807 134.667 28.0007C134.667 28.4007 134.493 28.7607 134.213 29.014L129.24 34.0007L130.227 34.974L121.267 43.934C119.573 45.6273 117.24 46.6673 114.667 46.6673C109.507 46.6673 105.333 42.494 105.333 37.334C105.333 34.7607 106.373 32.4273 108.067 30.734L117.027 21.774ZM119.387 42.054L126.453 34.974L117.027 25.5473L109.947 32.614C108.747 33.8273 108 35.494 108 37.334C108 41.014 110.987 44.0006 114.667 44.0006C116.507 44.0006 118.173 43.254 119.387 42.054ZM124.093 22.254L126 24.134L124.093 26.0007L122.213 24.134L124.093 22.254ZM127.867 26.0007L129.747 27.9073L127.867 29.7873L126 27.9073L127.867 26.0007ZM131.453 28.0007L124 20.5473L119.907 24.6673L127.333 32.1073L131.453 28.0007Z" fill="#EC4673"/>
<g clip-path="url(#clip0)">
<path d="M24.0009 56C19.2541 56.0002 14.6138 54.5927 10.6669 51.9556C6.72 49.3186 3.64374 45.5703 1.82713 41.1848C0.0105188 36.7993 -0.464917 31.9737 0.461101 27.318C1.38712 22.6624 3.67297 18.386 7.02948 15.0295C10.386 11.6729 14.6624 9.38715 19.3181 8.46113C23.9737 7.53511 28.7993 8.01044 33.1848 9.82705C37.5702 11.6437 41.3185 14.7199 43.9556 18.6668C46.5927 22.6137 48.0002 27.254 48 32.0009C47.9925 38.3635 45.4617 44.4635 40.9626 48.9626C36.4635 53.4616 30.3635 55.9925 24.0009 56ZM24.0009 11.8595C20.0175 11.8593 16.1235 13.0404 12.8113 15.2533C9.49913 17.4663 6.91764 20.6117 5.39309 24.2918C3.86855 27.9719 3.46954 32.0215 4.24649 35.9284C5.02345 39.8353 6.94139 43.4241 9.75797 46.2409C12.5745 49.0577 16.1632 50.9761 20.07 51.7533C23.9769 52.5306 28.0264 52.132 31.7066 50.6077C35.3869 49.0835 38.5325 46.5021 40.7457 43.1902C42.9589 39.8782 44.1405 35.9843 44.1407 32.0009C44.1348 26.6611 42.011 21.5418 38.2354 17.7659C34.4598 13.99 29.3406 11.8658 24.0009 11.8595Z" fill="#EC4673"/>
<path d="M29.7148 23.1568C28.2314 22.1773 26.385 21.8691 23.7823 21.8691H18.4961V23.4358H23.6741C26.0245 23.4358 27.4794 23.6598 28.6529 24.4161C29.2254 24.7703 29.6932 25.2707 30.008 25.8658C30.3227 26.4609 30.4731 27.1292 30.4437 27.8018C30.4661 28.4463 30.3267 29.0861 30.0384 29.6629C29.75 30.2397 29.3218 30.7352 28.7929 31.1041C27.7851 31.8038 26.5532 32.1686 23.6714 32.1686H18.4961V42.1306H20.2035V33.6794H23.4775C26.2486 33.6794 28.2907 33.3996 29.8024 32.3634C30.5566 31.8575 31.1704 31.1688 31.5865 30.3615C32.0026 29.5542 32.2075 28.6547 32.1819 27.7468C32.2043 26.8334 31.9887 25.9299 31.5561 25.1251C31.1236 24.3204 30.489 23.642 29.7148 23.1568Z" fill="#EC4673"/>
</g>
<path d="M77 25V31H78.17L76 33.17L73.83 31H75V25H77ZM79 23H73V29H69L76 36L83 29H79V23ZM87 38H65V40H87V38Z" fill="#C7C7C7"/>
<defs>
<clipPath id="clip0">
<rect width="48" height="48" fill="white" transform="translate(0 8)"/>
</clipPath>
</defs>
</svg>
