<svg width="80" height="80" viewBox="0 0 80 80" fill="none" xmlns="http://www.w3.org/2000/svg">
<circle cx="40" cy="40" r="40" fill="white"/>
<g clip-path="url(#clip0)">
<path d="M40.0012 72C33.6721 72.0003 27.4851 70.1236 22.2225 66.6075C16.96 63.0914 12.8583 58.0937 10.4362 52.2464C8.01403 46.3991 7.38011 39.9649 8.6148 33.7574C9.84949 27.5499 12.8973 21.848 17.3726 17.3726C21.848 12.8973 27.5499 9.84953 33.7574 8.61484C39.9649 7.38015 46.3991 8.01392 52.2464 10.4361C58.0937 12.8582 63.0914 16.9599 66.6075 22.2224C70.1236 27.485 72.0003 33.672 72.0001 40.0011C71.9901 48.4847 68.6156 56.618 62.6168 62.6167C56.6181 68.6155 48.4847 71.99 40.0012 72ZM40.0012 13.146C34.6899 13.1458 29.498 14.7205 25.0817 17.6711C20.6655 20.6217 17.2235 24.8156 15.1908 29.7224C13.1581 34.6292 12.626 40.0286 13.662 45.2379C14.6979 50.4471 17.2552 55.2321 21.0106 58.9878C24.7661 62.7436 29.5509 65.3014 34.76 66.3378C39.9692 67.3742 45.3685 66.8426 50.2755 64.8103C55.1825 62.778 59.3767 59.3362 62.3276 54.9202C65.2786 50.5042 66.854 45.3124 66.8542 40.0011C66.8464 32.8815 64.0146 26.0558 58.9805 21.0212C53.9464 15.9867 47.1208 13.1545 40.0012 13.146Z" fill="#EC4673"/>
<path d="M47.6194 28.209C45.6416 26.9031 43.1797 26.4922 39.7094 26.4922H32.6611V28.581H39.5652C42.699 28.581 44.6389 28.8797 46.2035 29.8881C46.9668 30.3604 47.5907 31.0277 48.0103 31.8211C48.43 32.6146 48.6305 33.5056 48.5913 34.4024C48.6211 35.2617 48.4353 36.1148 48.0509 36.8839C47.6664 37.653 47.0954 38.3136 46.3902 38.8055C45.0464 39.7383 43.4039 40.2248 39.5616 40.2248H32.6611V53.5075H34.9377V42.2392H39.3031C42.9978 42.2392 45.7206 41.8661 47.7362 40.4846C48.7419 39.81 49.5602 38.8917 50.1151 37.8153C50.6699 36.7389 50.943 35.5395 50.9089 34.3291C50.9388 33.1112 50.6513 31.9066 50.0745 30.8335C49.4978 29.7605 48.6516 28.856 47.6194 28.209Z" fill="#EC4673"/>
</g>
<defs>
<clipPath id="clip0">
<rect width="64" height="64" fill="white" transform="translate(8 8)"/>
</clipPath>
</defs>
</svg>
