<svg width="154" height="64" viewBox="0 0 154 64" fill="none" xmlns="http://www.w3.org/2000/svg">
<path d="M10.6668 33.333C12.8802 33.333 14.6668 35.1197 14.6668 37.333C14.6668 39.5463 12.8802 41.333 10.6668 41.333C8.4535 41.333 6.66683 39.5463 6.66683 37.333C6.66683 35.1197 8.4535 33.333 10.6668 33.333ZM10.6668 35.9997C9.9335 35.9997 9.3335 36.5997 9.3335 37.333C9.3335 38.0663 9.9335 38.6663 10.6668 38.6663C11.4002 38.6663 12.0002 38.0663 12.0002 37.333C12.0002 36.5997 11.4002 35.9997 10.6668 35.9997ZM13.0268 21.773L14.0002 22.773L19.0535 17.7197C19.2935 17.4797 19.6268 17.333 20.0002 17.333C20.3735 17.333 20.7068 17.4797 20.9468 17.7197L30.3735 27.1463V27.1597C30.5602 27.3863 30.6668 27.6797 30.6668 27.9997C30.6668 28.3997 30.4935 28.7597 30.2135 29.013L25.2402 33.9997L26.2268 34.973L17.2668 43.933C15.5735 45.6263 13.2402 46.6663 10.6668 46.6663C5.50683 46.6663 1.3335 42.493 1.3335 37.333C1.3335 34.7597 2.3735 32.4263 4.06683 30.733L13.0268 21.773ZM15.3868 42.053L22.4535 34.973L13.0268 25.5463L5.94683 32.613C4.74683 33.8263 4.00016 35.493 4.00016 37.333C4.00016 41.013 6.98683 43.9997 10.6668 43.9997C12.5068 43.9997 14.1735 43.253 15.3868 42.053ZM20.0935 22.253L22.0002 24.133L20.0935 25.9997L18.2135 24.133L20.0935 22.253ZM23.8668 25.9997L25.7468 27.9063L23.8668 29.7863L22.0002 27.9063L23.8668 25.9997ZM27.4535 27.9997L20.0002 20.5463L15.9068 24.6663L23.3335 32.1063L27.4535 27.9997Z" fill="#6DC7F7"/>
<path d="M120 50.6667C119.293 50.6667 118.614 50.3857 118.114 49.8856C117.614 49.3855 117.333 48.7072 117.333 48C117.333 47.2928 117.614 46.6145 118.114 46.1144C118.614 45.6143 119.293 45.3333 120 45.3333C120.707 45.3333 121.386 45.6143 121.886 46.1144C122.386 46.6145 122.667 47.2928 122.667 48C122.667 48.7072 122.386 49.3855 121.886 49.8856C121.386 50.3857 120.707 50.6667 120 50.6667ZM98.6667 13.3333H141.333V42.6667H98.6667V13.3333ZM141.333 48C142.748 48 144.104 47.4381 145.105 46.4379C146.105 45.4377 146.667 44.0812 146.667 42.6667V13.3333C146.667 10.3733 144.267 8 141.333 8H98.6667C95.7067 8 93.3333 10.3733 93.3333 13.3333V42.6667C93.3333 44.0812 93.8952 45.4377 94.8954 46.4379C95.8956 47.4381 97.2522 48 98.6667 48H88C88 49.4145 88.5619 50.771 89.5621 51.7712C90.5623 52.7714 91.9188 53.3333 93.3333 53.3333H146.667C148.081 53.3333 149.438 52.7714 150.438 51.7712C151.438 50.771 152 49.4145 152 48H141.333Z" fill="#6DC7F7"/>
<path d="M49 31.0001V33.0001H67L61.5 38.5001L62.92 39.9201L70.84 32.0001L62.92 24.0801L61.5 25.5001L67 31.0001H49Z" fill="#8C9BA5"/>
</svg>
