<svg width="154" height="64" viewBox="0 0 154 64" fill="none" xmlns="http://www.w3.org/2000/svg">
<path d="M10.6668 33.334C12.8802 33.334 14.6668 35.1206 14.6668 37.334C14.6668 39.5473 12.8802 41.334 10.6668 41.334C8.4535 41.334 6.66683 39.5473 6.66683 37.334C6.66683 35.1206 8.4535 33.334 10.6668 33.334ZM10.6668 36.0007C9.9335 36.0007 9.3335 36.6007 9.3335 37.334C9.3335 38.0673 9.9335 38.6673 10.6668 38.6673C11.4002 38.6673 12.0002 38.0673 12.0002 37.334C12.0002 36.6007 11.4002 36.0007 10.6668 36.0007ZM13.0268 21.774L14.0002 22.774L19.0535 17.7207C19.2935 17.4807 19.6268 17.334 20.0002 17.334C20.3735 17.334 20.7068 17.4807 20.9468 17.7207L30.3735 27.1473V27.1607C30.5602 27.3873 30.6668 27.6807 30.6668 28.0007C30.6668 28.4007 30.4935 28.7607 30.2135 29.014L25.2402 34.0007L26.2268 34.974L17.2668 43.934C15.5735 45.6273 13.2402 46.6673 10.6668 46.6673C5.50683 46.6673 1.3335 42.494 1.3335 37.334C1.3335 34.7607 2.3735 32.4273 4.06683 30.734L13.0268 21.774ZM15.3868 42.054L22.4535 34.974L13.0268 25.5473L5.94683 32.614C4.74683 33.8273 4.00016 35.494 4.00016 37.334C4.00016 41.014 6.98683 44.0006 10.6668 44.0006C12.5068 44.0006 14.1735 43.254 15.3868 42.054ZM20.0935 22.254L22.0002 24.134L20.0935 26.0007L18.2135 24.134L20.0935 22.254ZM23.8668 26.0007L25.7468 27.9073L23.8668 29.7873L22.0002 27.9073L23.8668 26.0007ZM27.4535 28.0007L20.0002 20.5473L15.9068 24.6673L23.3335 32.1073L27.4535 28.0007Z" fill="#EC4673"/>
<path d="M120 50.6667C119.293 50.6667 118.614 50.3857 118.114 49.8856C117.614 49.3855 117.333 48.7072 117.333 48C117.333 47.2928 117.614 46.6145 118.114 46.1144C118.614 45.6143 119.293 45.3333 120 45.3333C120.707 45.3333 121.386 45.6143 121.886 46.1144C122.386 46.6145 122.667 47.2928 122.667 48C122.667 48.7072 122.386 49.3855 121.886 49.8856C121.386 50.3857 120.707 50.6667 120 50.6667ZM98.6667 13.3333H141.333V42.6667H98.6667V13.3333ZM141.333 48C142.748 48 144.104 47.4381 145.105 46.4379C146.105 45.4377 146.667 44.0812 146.667 42.6667V13.3333C146.667 10.3733 144.267 8 141.333 8H98.6667C95.7067 8 93.3333 10.3733 93.3333 13.3333V42.6667C93.3333 44.0812 93.8952 45.4377 94.8954 46.4379C95.8956 47.4381 97.2522 48 98.6667 48H88C88 49.4145 88.5619 50.771 89.5621 51.7712C90.5623 52.7714 91.9188 53.3333 93.3333 53.3333H146.667C148.081 53.3333 149.438 52.7714 150.438 51.7712C151.438 50.771 152 49.4145 152 48H141.333Z" fill="#EC4673"/>
<path d="M49 31.0001V33.0001H67L61.5 38.5001L62.92 39.9201L70.84 32.0001L62.92 24.0801L61.5 25.5001L67 31.0001H49Z" fill="#C7C7C7"/>
</svg>
